<?xml version="1.0" standalone="no"?>
<!DOCTYPE svg PUBLIC "-//W3C//DTD SVG 20010904//EN"
 "http://www.w3.org/TR/2001/REC-SVG-20010904/DTD/svg10.dtd">
<svg version="1.0" xmlns="http://www.w3.org/2000/svg"
 width="194.000000pt" height="136.000000pt" viewBox="0 0 194.000000 136.000000"
 preserveAspectRatio="xMidYMid meet">
<metadata>
Created by potrace 1.16, written by Peter Selinger 2001-2019
</metadata>
<g transform="translate(0.000000,136.000000) scale(0.100000,-0.100000)"
fill="#6f51ff" stroke="none">
<path d="M840 1112 c-154 -40 -277 -162 -326 -321 -18 -59 -18 -193 0 -252 36
-117 123 -227 223 -281 137 -75 312 -75 443 -1 34 19 58 25 97 24 52 -2 143
28 143 46 0 17 -386 392 -413 402 -47 18 -128 13 -164 -9 -18 -11 -33 -23 -33
-27 0 -4 61 -69 136 -144 131 -131 136 -137 114 -149 -39 -21 -122 -24 -182
-6 -69 20 -147 86 -178 153 -32 66 -32 170 -1 235 70 146 245 207 388 135 88
-45 137 -116 152 -220 5 -35 16 -78 25 -95 29 -55 83 -68 131 -30 27 21 27 22
23 118 -3 88 -7 104 -41 173 -102 207 -317 306 -537 249z"/>
</g>
</svg>